<svg width="383" height="64" viewBox="0 0 383 64" fill="none" xmlns="http://www.w3.org/2000/svg">
<g clip-path="url(#clip0_445_860)">
<path d="M57.197 3.05176e-05H8.71217C4.4455 3.05176e-05 0.95459 3.49094 0.95459 7.75761V56.2425C0.95459 60.5091 4.4455 64 8.71217 64H57.197C61.4637 64 64.9546 60.5091 64.9546 56.2425V7.75761C64.9546 3.49094 61.4637 3.05176e-05 57.197 3.05176e-05Z" fill="#006CFF"/>
<path d="M38.9664 32.4849C38.7346 32.0204 38.7217 31.7174 38.9664 31.2243L48.6634 14.6425C49.1482 13.7697 48.5664 12.5091 47.4028 12.5091H25.8755C25.3906 12.5091 24.9793 12.747 24.7119 13.1879L13.8512 31.1273C13.5921 31.571 13.6015 32.1394 13.8512 32.5819L24.7119 50.5213C24.9509 50.9634 25.3488 51.2 25.8755 51.2H47.4028C48.4694 51.2 49.1482 50.0364 48.6634 49.0667L38.9664 32.4849ZM43.7179 16.194L36.6391 28.3152L29.5603 16.194H43.7179ZM17.73 32L26.0694 18.0364L34.2149 32L26.0694 45.9637L17.73 32ZM29.6573 47.8061L36.7361 35.6849L43.8149 47.8061H29.6573Z" fill="white"/>
<path d="M97.4104 19.6153C101.717 19.6153 104.504 21.6494 105.931 25.834L106.041 26.156L111.662 24.6532L111.574 24.3056C109.9 17.6579 104.738 13.8445 97.4128 13.8435C93.1041 13.7857 89.0714 15.4022 86.106 18.3729C82.811 21.6721 81.1069 26.2962 81.1784 31.7356C81.1069 37.1844 82.811 41.8094 86.106 45.1087C89.0274 48.0348 92.9668 49.639 97.2144 49.639C97.2798 49.639 97.3451 49.639 97.4104 49.638C104.737 49.638 109.9 45.8246 111.574 39.1759L111.662 38.8284L106.041 37.3255L105.931 37.6475C104.504 41.8321 101.717 43.8662 97.4104 43.8662C91.2603 43.8662 87.4398 39.2195 87.4398 31.7403C87.4398 24.2611 91.2603 19.6153 97.4104 19.6153Z" fill="#272932"/>
<path d="M128.231 23.443C125.07 23.443 122.25 24.8805 120.465 27.3454V13.8435H114.546V49.246H120.465V38.4013C120.465 31.7195 123.653 28.6759 126.615 28.6759C129.174 28.6759 130.365 30.0699 130.365 33.0632V49.246H136.284V31.4468C136.284 26.3606 133.349 23.443 128.231 23.443Z" fill="#272932"/>
<path d="M150.89 23.443C142.699 23.443 138.968 30.2328 138.968 36.5405C138.968 42.8483 142.699 49.6381 150.89 49.6381C156.336 49.6381 159.927 47.3142 162.191 42.3237L162.35 41.9742L157.434 40.0528L157.281 40.3322C155.69 43.2252 153.909 44.4051 151.135 44.4051C147.763 44.4051 145.555 42.1778 145.03 38.2754H162.567V35.7564C162.567 29.6371 158.556 23.443 150.89 23.443ZM150.89 28.6759C153.802 28.6759 155.769 30.3265 156.467 33.336H145.332C146.142 30.4079 148.193 28.6759 150.89 28.6759Z" fill="#272932"/>
<path d="M183.62 40.2536C182.258 43.1248 180.441 44.4051 177.729 44.4051C174.001 44.4051 171.775 41.4648 171.775 36.5405C171.775 31.6163 174.001 28.6759 177.729 28.6759C180.453 28.6759 182.324 29.9932 183.619 32.8227L183.764 33.1418L189.023 30.96L188.891 30.6267C187.021 25.9269 183.161 23.443 177.729 23.443C170.511 23.443 165.66 28.7062 165.66 36.5405C165.66 44.3748 170.511 49.6381 177.729 49.6381C183.148 49.6381 187.008 47.1371 188.891 42.4051L189.025 42.0689L183.768 39.9439L183.62 40.2536Z" fill="#272932"/>
<path d="M212.741 23.835H205.398L197.21 33.2649V13.8435H191.291V49.246H197.21V37.8871L206.122 49.246H213.431L202.32 35.5708L212.741 23.835Z" fill="#272932"/>
<path d="M225.1 23.443C217.677 23.443 212.493 28.8293 212.493 36.5405C212.493 44.2517 217.677 49.6381 225.1 49.6381C232.523 49.6381 237.708 44.2517 237.708 36.5405C237.708 28.8293 232.523 23.443 225.1 23.443ZM229.806 42.1485C228.656 43.6674 227.117 44.4051 225.1 44.4051C223.079 44.4051 221.479 43.6456 220.345 42.1485C219.175 40.6059 218.607 38.7716 218.607 36.5405C218.607 34.3104 219.175 32.4752 220.345 30.9316C221.479 29.4345 223.079 28.6759 225.1 28.6759C227.116 28.6759 228.656 29.4136 229.806 30.9316C230.976 32.4752 231.544 34.3104 231.544 36.5405C231.544 38.7716 230.976 40.6059 229.806 42.1485Z" fill="#272932"/>
<path d="M256.256 34.3369C256.256 40.2649 253.787 44.4051 250.252 44.4051C247.828 44.4051 246.649 43.0339 246.649 40.2138V23.835H240.73V41.6343C240.73 46.5708 243.778 49.6381 248.685 49.6381C251.544 49.6381 254.253 48.2138 256.256 45.693V49.246H262.125V23.835H256.256V34.3369Z" fill="#272932"/>
<path d="M279.638 43.8199C278.991 44.2081 278.181 44.4051 277.23 44.4051C275.184 44.4051 274.312 43.3132 274.312 40.7526V29.068H280.875V23.835H274.312V13.5471L268.393 17.2877V23.835H264.426V29.068H268.393V40.6542C268.393 46.4477 271.444 49.6381 276.984 49.6381C278.568 49.6381 279.99 49.3284 281.213 48.7186L281.483 48.5831L280.044 43.5756L279.638 43.8199Z" fill="#272932"/>
<path d="M287.254 41.515C284.972 41.515 283.316 43.192 283.316 45.5026C283.316 47.7763 285.009 49.4913 287.254 49.4913C289.593 49.4913 291.291 47.8142 291.291 45.5026C291.291 43.192 289.593 41.515 287.254 41.515Z" fill="#272932"/>
<path d="M310.988 40.2536C309.625 43.1248 307.808 44.4051 305.096 44.4051C301.367 44.4051 299.142 41.4648 299.142 36.5405C299.142 31.6163 301.367 28.6759 305.096 28.6759C307.819 28.6759 309.69 29.9932 310.986 32.8227L311.132 33.1418L316.39 30.96L316.257 30.6267C314.388 25.9269 310.528 23.443 305.096 23.443C297.877 23.443 293.027 28.7062 293.027 36.5405C293.027 44.3748 297.877 49.6381 305.096 49.6381C310.516 49.6381 314.375 47.1371 316.257 42.4051L316.391 42.0689L311.134 39.9439L310.988 40.2536Z" fill="#272932"/>
<path d="M330.746 23.443C323.324 23.443 318.139 28.8293 318.139 36.5405C318.139 44.2517 323.324 49.6381 330.746 49.6381C338.17 49.6381 343.354 44.2517 343.354 36.5405C343.354 28.8293 338.17 23.443 330.746 23.443ZM335.453 42.1485C334.302 43.6674 332.763 44.4051 330.746 44.4051C328.726 44.4051 327.126 43.6456 325.992 42.1485C324.822 40.6059 324.254 38.7716 324.254 36.5405C324.254 34.3104 324.822 32.4752 325.992 30.9316C327.126 29.4345 328.726 28.6759 330.746 28.6759C332.763 28.6759 334.302 29.4136 335.453 30.9316C336.622 32.4752 337.191 34.3104 337.191 36.5405C337.191 38.7716 336.622 40.6059 335.453 42.1485Z" fill="#272932"/>
<path d="M373.902 23.443C370.977 23.443 368.187 25.1778 366.31 28.1238C365.175 25.0973 362.734 23.443 359.356 23.443C356.583 23.443 354.255 24.7346 352.422 27.2858V23.835H346.504V49.246H352.422V39.2829C352.422 32.8398 354.606 28.6759 357.985 28.6759C360.138 28.6759 361.099 29.818 361.099 32.3776V49.246H366.968V38.8909C366.968 32.781 369.204 28.6759 372.53 28.6759C374.684 28.6759 375.644 29.818 375.644 32.3776V49.246H381.514V31.5452C381.514 26.3966 378.74 23.443 373.902 23.443Z" fill="#272932"/>
</g>
<defs>
<clipPath id="clip0_445_860">
<rect width="381.091" height="64" fill="white" transform="translate(0.95459)"/>
</clipPath>
</defs>
</svg>
